<?xml version="1.0" encoding="utf-8"?>
<!-- Generator: Adobe Illustrator 15.0.0, SVG Export Plug-In . SVG Version: 6.00 Build 0)  -->
<!DOCTYPE svg PUBLIC "-//W3C//DTD SVG 1.1//EN" "http://www.w3.org/Graphics/SVG/1.1/DTD/svg11.dtd">
<svg version="1.1" id="Layer_1" xmlns="http://www.w3.org/2000/svg" xmlns:xlink="http://www.w3.org/1999/xlink" x="0px" y="0px"
	 width="200px" height="200px" viewBox="0 0 200 200" enable-background="new 0 0 200 200" xml:space="preserve">
<rect x="109.086" y="29.395" transform="matrix(-0.7071 -0.7071 0.7071 -0.7071 177.6294 156.7757)" opacity="0.08" enable-background="new    " width="24.397" height="24.407"/>
<polygon opacity="0.08" enable-background="new    " points="228.095,118.011 245.348,100.758 145.108,0.52 127.854,17.772 
	151.683,41.598 147.565,45.715 145.108,48.172 127.851,65.431 103.817,89.465 68.696,124.585 85.953,141.843 168.94,58.856 
	192.677,82.593 "/>
<rect x="239.725" y="112.376" transform="matrix(0.7071 -0.7071 0.7071 0.7071 -14.3038 214.6258)" opacity="0.08" enable-background="new    " width="24.398" height="24.407"/>
<polygon opacity="0.08" enable-background="new    " points="175.514,231.401 192.767,248.654 293.005,148.417 275.753,131.164 
	251.927,154.99 249.071,152.134 245.353,148.417 228.095,131.157 186.103,89.167 168.94,72.004 151.683,89.264 234.667,172.248 
	208.323,198.595 "/>
<rect x="156.729" y="243.03" transform="matrix(0.7071 0.7071 -0.7071 0.7071 229.9635 -44.6929)" opacity="0.08" enable-background="new    " width="24.399" height="24.406"/>
<polygon opacity="0.08" enable-background="new    " points="62.123,178.822 44.87,196.075 145.108,296.313 162.36,279.061 
	138.534,255.235 141.821,251.947 145.108,248.659 162.366,231.401 201.748,192.021 221.52,172.248 204.262,154.99 121.276,237.976 
	"/>
<rect x="27.384" y="163.155" transform="matrix(-0.7071 0.7071 -0.7071 -0.7071 190.2807 268.248)" opacity="0.08" enable-background="new    " width="24.399" height="20.756"/>
<polygon opacity="0.08" enable-background="new    " points="114.702,65.431 97.45,48.179 -2.788,148.417 14.464,165.669 
	38.29,141.843 42.871,146.423 47.445,150.997 62.121,165.675 98.272,201.826 121.276,224.829 138.534,207.569 55.549,124.585 
	97.241,82.891 "/>
</svg>
